<svg width="17" height="19" viewBox="0 0 17 19" fill="none" xmlns="http://www.w3.org/2000/svg">
<path fill-rule="evenodd" clip-rule="evenodd" d="M12.1612 0.333344C12.5062 0.333344 12.7862 0.613344 12.7862 0.958344L12.7866 1.66485C14.0033 1.74827 15.0139 2.16505 15.7291 2.88176C16.51 3.66593 16.9208 4.79343 16.9167 6.14593V13.7484C16.9167 16.5251 15.1533 18.2501 12.3158 18.2501H5.26746C2.42996 18.2501 0.666626 16.5009 0.666626 13.6851V6.14426C0.666626 3.52525 2.23917 1.84413 4.80386 1.66514L4.80438 0.958344C4.80438 0.613344 5.08438 0.333344 5.42938 0.333344C5.77438 0.333344 6.05438 0.613344 6.05438 0.958344L6.05413 1.64918H11.5358L11.5362 0.958344C11.5362 0.613344 11.8162 0.333344 12.1612 0.333344ZM15.6666 7.75334H1.91663V13.6851C1.91663 15.8234 3.10663 17.0001 5.26746 17.0001H12.3158C14.4766 17.0001 15.6667 15.8451 15.6667 13.7484L15.6666 7.75334ZM12.501 12.9969C12.846 12.9969 13.126 13.2769 13.126 13.6219C13.126 13.9669 12.846 14.2469 12.501 14.2469C12.156 14.2469 11.8726 13.9669 11.8726 13.6219C11.8726 13.2769 12.1485 12.9969 12.4935 12.9969H12.501ZM8.80304 12.9969C9.14804 12.9969 9.42804 13.2769 9.42804 13.6219C9.42804 13.9669 9.14804 14.2469 8.80304 14.2469C8.45804 14.2469 8.17471 13.9669 8.17471 13.6219C8.17471 13.2769 8.45054 12.9969 8.79554 12.9969H8.80304ZM5.09738 12.9969C5.44238 12.9969 5.72238 13.2769 5.72238 13.6219C5.72238 13.9669 5.44238 14.2469 5.09738 14.2469C4.75238 14.2469 4.46821 13.9669 4.46821 13.6219C4.46821 13.2769 4.74488 12.9969 5.08988 12.9969H5.09738ZM12.501 9.75801C12.846 9.75801 13.126 10.038 13.126 10.383C13.126 10.728 12.846 11.008 12.501 11.008C12.156 11.008 11.8726 10.728 11.8726 10.383C11.8726 10.038 12.1485 9.75801 12.4935 9.75801H12.501ZM8.80304 9.75801C9.14804 9.75801 9.42804 10.038 9.42804 10.383C9.42804 10.728 9.14804 11.008 8.80304 11.008C8.45804 11.008 8.17471 10.728 8.17471 10.383C8.17471 10.038 8.45054 9.75801 8.79554 9.75801H8.80304ZM5.09738 9.75801C5.44238 9.75801 5.72238 10.038 5.72238 10.383C5.72238 10.728 5.44238 11.008 5.09738 11.008C4.75238 11.008 4.46821 10.728 4.46821 10.383C4.46821 10.038 4.74488 9.75801 5.08988 9.75801H5.09738ZM11.5358 2.89918H6.05413L6.05438 3.70084C6.05438 4.04584 5.77438 4.32584 5.42938 4.32584C5.08438 4.32584 4.80438 4.04584 4.80438 3.70084L4.80393 2.9181C2.93707 3.07492 1.91663 4.20656 1.91663 6.14426V6.50334H15.6666L15.6667 6.14426C15.67 5.11509 15.3933 4.31509 14.8441 3.76509C14.3621 3.2816 13.6573 2.99284 12.7869 2.9185L12.7862 3.70084C12.7862 4.04584 12.5062 4.32584 12.1612 4.32584C11.8162 4.32584 11.5362 4.04584 11.5362 3.70084L11.5358 2.89918Z" fill="#ABB5BE"/>
</svg>
