<svg width="21" height="21" viewBox="0 0 21 21" fill="none" xmlns="http://www.w3.org/2000/svg">
<path fill-rule="evenodd" clip-rule="evenodd" d="M15.0664 0.916668C18.3912 0.916668 20.6251 3.2505 20.6251 6.72375V14.8179C20.6251 18.2912 18.3912 20.625 15.0664 20.625H6.47541C3.15066 20.625 0.916748 18.2912 0.916748 14.8179V6.72375C0.916748 3.2505 3.15066 0.916668 6.47541 0.916668H15.0664ZM15.0664 2.29167H6.47541C3.93441 2.29167 2.29175 4.03058 2.29175 6.72375V14.8179C2.29175 17.5111 3.93441 19.25 6.47541 19.25H15.0664C17.6083 19.25 19.2501 17.5111 19.2501 14.8179V6.72375C19.2501 4.03058 17.6083 2.29167 15.0664 2.29167ZM6.52776 8.43563C6.90726 8.43563 7.21526 8.74363 7.21526 9.12313V15.4115C7.21526 15.791 6.90726 16.099 6.52776 16.099C6.14826 16.099 5.84026 15.791 5.84026 15.4115V9.12313C5.84026 8.74363 6.14826 8.43563 6.52776 8.43563ZM10.8058 5.42529C11.1853 5.42529 11.4933 5.73329 11.4933 6.11279V15.4105C11.4933 15.79 11.1853 16.098 10.8058 16.098C10.4263 16.098 10.1183 15.79 10.1183 15.4105V6.11279C10.1183 5.73329 10.4263 5.42529 10.8058 5.42529ZM15.0136 11.7585C15.3931 11.7585 15.7011 12.0665 15.7011 12.446V15.4105C15.7011 15.79 15.3931 16.098 15.0136 16.098C14.6341 16.098 14.3261 15.79 14.3261 15.4105V12.446C14.3261 12.0665 14.6341 11.7585 15.0136 11.7585Z" fill="#EDEDED"/>
</svg>
