<svg width="30" height="31" viewBox="0 0 30 31" fill="none" xmlns="http://www.w3.org/2000/svg">
<path d="M29.5312 15.1665C29.5312 23.1919 23.0254 29.6978 15 29.6978C6.97459 29.6978 0.46875 23.1919 0.46875 15.1665C0.46875 7.14109 6.97459 0.635254 15 0.635254C23.0254 0.635254 29.5312 7.14109 29.5312 15.1665ZM13.3192 22.8607L24.1004 12.0794C24.4665 11.7133 24.4665 11.1197 24.1004 10.7536L22.7746 9.42783C22.4085 9.06168 21.8149 9.06168 21.4488 9.42783L12.6562 18.2203L8.55123 14.1153C8.18514 13.7492 7.59152 13.7492 7.22537 14.1153L5.89957 15.4411C5.53348 15.8072 5.53348 16.4008 5.89957 16.7669L11.9933 22.8606C12.3595 23.2268 12.953 23.2268 13.3192 22.8607Z" fill="#008000"/>
</svg>
