<svg width="21" height="20" viewBox="0 0 21 20" fill="none" xmlns="http://www.w3.org/2000/svg">
<path d="M10.5002 18.9584C7.16683 18.9584 4.4585 16.5667 4.4585 13.625V10.5417C4.4585 10.2 4.74183 9.91669 5.0835 9.91669C5.42516 9.91669 5.7085 10.2 5.7085 10.5417C5.7085 12.725 7.76683 14.375 10.5002 14.375C13.2335 14.375 15.2918 12.725 15.2918 10.5417C15.2918 10.2 15.5752 9.91669 15.9168 9.91669C16.2585 9.91669 16.5418 10.2 16.5418 10.5417V13.625C16.5418 16.5667 13.8335 18.9584 10.5002 18.9584ZM5.7085 13.7167C5.76683 15.925 7.89183 17.7084 10.5002 17.7084C13.1085 17.7084 15.2335 15.925 15.2918 13.7167C14.2085 14.8917 12.4918 15.625 10.5002 15.625C8.5085 15.625 6.80016 14.8917 5.7085 13.7167Z" fill="#292D32"/>
<path d="M10.5002 11.4583C8.20016 11.4583 6.13349 10.425 5.12515 8.75834C4.69182 8.05 4.4585 7.22501 4.4585 6.37501C4.4585 4.94167 5.10017 3.59167 6.2585 2.57501C7.39183 1.58334 8.90016 1.04167 10.5002 1.04167C12.1002 1.04167 13.6002 1.58334 14.7418 2.56667C15.9002 3.59167 16.5418 4.94167 16.5418 6.37501C16.5418 7.22501 16.3085 8.04167 15.8752 8.75834C14.8668 10.425 12.8002 11.4583 10.5002 11.4583ZM10.5002 2.29167C9.20016 2.29167 7.98351 2.725 7.07517 3.525C6.19184 4.29167 5.7085 5.30834 5.7085 6.37501C5.7085 7.00001 5.87515 7.58334 6.19182 8.10834C6.98348 9.40834 8.6335 10.2083 10.5002 10.2083C12.3668 10.2083 14.0168 9.40001 14.8085 8.10834C15.1335 7.58334 15.2918 7.00001 15.2918 6.37501C15.2918 5.30834 14.8085 4.29167 13.9168 3.50834C13.0085 2.725 11.8002 2.29167 10.5002 2.29167Z" fill="#292D32"/>
<path d="M10.5002 15.625C7.0585 15.625 4.4585 13.4417 4.4585 10.5417V6.37501C4.4585 3.43334 7.16683 1.04167 10.5002 1.04167C12.1002 1.04167 13.6002 1.58334 14.7418 2.56667C15.9002 3.59167 16.5418 4.94167 16.5418 6.37501V10.5417C16.5418 13.4417 13.9418 15.625 10.5002 15.625ZM10.5002 2.29167C7.8585 2.29167 5.7085 4.12501 5.7085 6.37501V10.5417C5.7085 12.725 7.76683 14.375 10.5002 14.375C13.2335 14.375 15.2918 12.725 15.2918 10.5417V6.37501C15.2918 5.30834 14.8085 4.29167 13.9168 3.50834C13.0085 2.725 11.8002 2.29167 10.5002 2.29167Z" fill="#292D32"/>
</svg>
