<svg width="15" height="16" viewBox="0 0 15 16" fill="none" xmlns="http://www.w3.org/2000/svg">
<path fill-rule="evenodd" clip-rule="evenodd" d="M12.5385 5.54002C12.8482 5.56552 13.0792 5.83627 13.0544 6.14602C13.0499 6.19702 12.6435 11.2303 12.4095 13.3415C12.264 14.6518 11.3984 15.449 10.0919 15.473C9.0922 15.4903 8.1277 15.5 7.18495 15.5C6.1687 15.5 5.17795 15.4888 4.1977 15.4685C2.9437 15.4438 2.07595 14.6308 1.9342 13.3468C1.69795 11.2168 1.2937 6.19627 1.28995 6.14602C1.26445 5.83627 1.49545 5.56477 1.8052 5.54002C2.11045 5.53177 2.38645 5.74627 2.4112 6.05527C2.41359 6.08782 2.57886 8.13804 2.75895 10.1666L2.79512 10.5714C2.88582 11.5796 2.97777 12.5485 3.05245 13.223C3.1327 13.9528 3.52645 14.3293 4.22095 14.3435C6.09595 14.3833 8.0092 14.3855 10.0717 14.348C10.8097 14.3338 11.2087 13.9648 11.2912 13.2178C11.5237 11.1223 11.9287 6.10627 11.9332 6.05527C11.9579 5.74627 12.2317 5.53027 12.5385 5.54002ZM8.75905 0.500244C9.44755 0.500244 10.0528 0.964494 10.2305 1.62974L10.4211 2.57549C10.4826 2.88552 10.7547 3.11194 11.0697 3.11691L13.531 3.11699C13.8415 3.11699 14.0935 3.36899 14.0935 3.67949C14.0935 3.98999 13.8415 4.24199 13.531 4.24199L11.0917 4.24188C11.0879 4.24196 11.0841 4.24199 11.0803 4.24199L11.062 4.24124L3.28121 4.2419C3.27517 4.24196 3.26911 4.24199 3.26305 4.24199L3.2515 4.24124L0.8125 4.24199C0.502 4.24199 0.25 3.98999 0.25 3.67949C0.25 3.36899 0.502 3.11699 0.8125 3.11699L3.27325 3.11624L3.34902 3.11145C3.63123 3.07483 3.86578 2.86049 3.92305 2.57549L4.1053 1.66349C4.29055 0.964494 4.8958 0.500244 5.5843 0.500244H8.75905ZM8.75905 1.62524H5.5843C5.4043 1.62524 5.24605 1.74599 5.2003 1.91924L5.02555 2.79674C5.00334 2.90789 4.971 3.015 4.92961 3.1172H9.41396C9.37252 3.015 9.34011 2.90789 9.3178 2.79674L9.13555 1.88474C9.0973 1.74599 8.93905 1.62524 8.75905 1.62524Z" fill="#DE0000"/>
</svg>
