<svg width="21" height="20" viewBox="0 0 21 20" fill="none" xmlns="http://www.w3.org/2000/svg">
<path fill-rule="evenodd" clip-rule="evenodd" d="M15.7105 0C18.3504 0 20.5 1.985 20.5 4.425V15.564C20.5 18.01 18.345 20 15.6986 20H10.4112C7.77135 20 5.62285 18.015 5.62285 15.575V14.633C5.62285 14.219 5.98652 13.883 6.43462 13.883C6.88272 13.883 7.2464 14.219 7.2464 14.633V15.575C7.2464 17.187 8.66647 18.5 10.4112 18.5H15.6986C17.451 18.5 18.8764 17.184 18.8764 15.564V4.425C18.8764 2.813 17.4553 1.5 15.7105 1.5H10.4232C8.67188 1.5 7.2464 2.816 7.2464 4.434V5.367C7.2464 5.781 6.88272 6.117 6.43462 6.117C5.98652 6.117 5.62285 5.781 5.62285 5.367V4.434C5.62285 1.989 7.77676 0 10.4232 0H15.7105ZM11.7483 6.553L14.9185 9.46975C14.9442 9.49351 14.9682 9.51885 14.9903 9.5456L14.9186 9.469C14.9618 9.50837 14.9996 9.55184 15.0316 9.59843C15.0382 9.61011 15.0456 9.62152 15.0526 9.63311C15.065 9.65102 15.0754 9.67004 15.085 9.68944C15.0904 9.7032 15.0966 9.71688 15.1024 9.73077C15.1117 9.74977 15.1188 9.76931 15.1251 9.78911C15.1287 9.8047 15.133 9.82026 15.1369 9.836C15.1428 9.85507 15.1466 9.87425 15.1496 9.89358C15.1496 9.90237 15.1508 9.9116 15.1519 9.92088C15.1562 9.94728 15.1578 9.97358 15.1578 10L15.1499 10.079L15.1489 10.1017C15.1487 10.1034 15.1484 10.1051 15.1482 10.1068L15.1578 10C15.1578 10.0555 15.1511 10.1105 15.1382 10.1639C15.133 10.1797 15.1287 10.1953 15.1238 10.2107C15.1188 10.2307 15.1117 10.2502 15.1036 10.2695C15.0966 10.2831 15.0904 10.2968 15.0838 10.3103C15.0754 10.33 15.065 10.349 15.0537 10.3676C15.0456 10.3785 15.0382 10.3899 15.0305 10.4011C15.0188 10.4202 15.0051 10.4383 14.9905 10.4558C14.9805 10.4662 14.9712 10.4768 14.9616 10.4872C14.9486 10.5025 14.9339 10.517 14.9186 10.531L11.7483 13.446C11.5903 13.592 11.3825 13.665 11.1757 13.665C10.9679 13.665 10.759 13.592 10.601 13.444C10.2839 13.15 10.286 12.676 10.6031 12.384L12.379 10.75H1.31178C0.863676 10.75 0.5 10.414 0.5 10C0.5 9.586 0.863676 9.25 1.31178 9.25H12.379L10.6031 7.615C10.286 7.323 10.2839 6.849 10.601 6.555C10.9181 6.261 11.4312 6.261 11.7483 6.553Z" fill="white"/>
</svg>
