<svg width="17" height="20" viewBox="0 0 17 20" fill="none" xmlns="http://www.w3.org/2000/svg">
<path fill-rule="evenodd" clip-rule="evenodd" d="M10.8108 0.833603C10.8502 0.833603 10.8888 0.836918 10.9263 0.843283L11.0518 0.844053C11.2388 0.844053 11.4176 0.920136 11.5477 1.05489L16.1906 5.89214C16.3135 6.01955 16.3823 6.19097 16.3823 6.36789V14.7701C16.3987 17.07 14.6076 18.9491 12.304 19.0426L4.95322 19.0436H4.8533C2.60752 18.9928 0.80637 17.1765 0.751497 14.9526L0.751221 4.9498C0.804387 2.67555 2.68264 0.844053 4.94039 0.844053L10.6953 0.843283C10.7328 0.836918 10.7714 0.833603 10.8108 0.833603ZM10.1232 2.21869L4.94222 2.21905C3.4233 2.21905 2.16197 3.44922 2.12622 4.9663V14.7701C2.0923 16.3403 3.3298 17.6337 4.88447 17.6686H12.2765C13.8064 17.6053 15.0182 16.3339 15.0073 14.7756L15.0072 7.23469L13.1648 7.2356C11.4873 7.23102 10.1233 5.86335 10.1233 4.18769L10.1232 2.21869ZM10.6396 12.391C11.0191 12.391 11.3271 12.699 11.3271 13.0785C11.3271 13.458 11.0191 13.766 10.6396 13.766H5.68958C5.31008 13.766 5.00208 13.458 5.00208 13.0785C5.00208 12.699 5.31008 12.391 5.68958 12.391H10.6396ZM8.76509 8.95169C9.14459 8.95169 9.45259 9.25969 9.45259 9.63919C9.45259 10.0187 9.14459 10.3267 8.76509 10.3267H5.68875C5.30925 10.3267 5.00125 10.0187 5.00125 9.63919C5.00125 9.25969 5.30925 8.95169 5.68875 8.95169H8.76509ZM11.4982 2.9896L11.4983 4.18769C11.4983 5.10802 12.2472 5.85785 13.1666 5.8606L14.2537 5.85969L11.4982 2.9896Z" fill="#EDEDED"/>
</svg>
