<svg width="20" height="20" viewBox="0 0 20 20" fill="none" xmlns="http://www.w3.org/2000/svg">
<path d="M9.97493 18.9583C5.0416 18.9583 1.0166 14.9417 1.0166 10C1.0166 5.05834 5.0416 1.04167 9.97493 1.04167C14.9083 1.04167 18.9333 5.05834 18.9333 10C18.9333 14.9417 14.9166 18.9583 9.97493 18.9583ZM9.97493 2.29167C5.72494 2.29167 2.2666 5.75001 2.2666 10C2.2666 14.25 5.72494 17.7083 9.97493 17.7083C14.2249 17.7083 17.6833 14.25 17.6833 10C17.6833 5.75001 14.2249 2.29167 9.97493 2.29167Z" fill="#292D32"/>
<path d="M8.80036 14.1583C8.43369 14.1583 8.08369 14.0667 7.77536 13.8917C7.05869 13.475 6.65869 12.6583 6.65869 11.5917V8.79999C6.65869 7.73333 7.05036 6.91666 7.76702 6.49999C8.48369 6.08333 9.39203 6.14999 10.317 6.68333L12.7337 8.07499C13.6587 8.60833 14.167 9.35833 14.167 10.1917C14.167 11.0167 13.6587 11.775 12.7337 12.3083L10.317 13.7C9.80036 14.0083 9.27536 14.1583 8.80036 14.1583ZM8.80036 7.47499C8.65036 7.47499 8.50869 7.50833 8.40036 7.57499C8.08369 7.75833 7.90869 8.19999 7.90869 8.79999V11.5917C7.90869 12.1833 8.08369 12.6333 8.40036 12.8083C8.70869 12.9917 9.18369 12.9167 9.70036 12.625L12.117 11.2333C12.6337 10.9333 12.9254 10.5583 12.9254 10.2C12.9254 9.84166 12.6254 9.46666 12.117 9.16666L9.70036 7.77499C9.36703 7.57499 9.05869 7.47499 8.80036 7.47499Z" fill="#292D32"/>
</svg>
