<svg width="30" height="31" viewBox="0 0 30 31" fill="none" xmlns="http://www.w3.org/2000/svg">
<path d="M24.75 0.687613L22.5 3.31261L19.3125 0.687613C19.1506 0.564995 18.9531 0.498635 18.75 0.498635C18.5469 0.498635 18.3494 0.564995 18.1875 0.687613L15 3.31261L11.8125 0.687613C11.6506 0.564995 11.4531 0.498635 11.25 0.498635C11.0469 0.498635 10.8494 0.564995 10.6875 0.687613L7.5 3.31261L5.25 0.687613C4.62891 0.224723 3.75 0.664176 3.75 1.43761V29.5626C3.75 30.336 4.62891 30.7755 5.25 30.3126L7.5 27.6876L10.6875 30.3126C10.8494 30.4352 11.0469 30.5016 11.25 30.5016C11.4531 30.5016 11.6506 30.4352 11.8125 30.3126L15 27.6876L18.1875 30.3126C18.3494 30.4352 18.5469 30.5016 18.75 30.5016C18.9531 30.5016 19.1506 30.4352 19.3125 30.3126L22.5 27.6876L24.75 30.3126C25.3652 30.7755 26.25 30.336 26.25 29.5626V1.43761C26.25 0.664176 25.3711 0.224723 24.75 0.687613ZM22.5 21.5939C22.5 21.8517 22.2891 22.0626 22.0312 22.0626H7.96875C7.71094 22.0626 7.5 21.8517 7.5 21.5939V20.6564C7.5 20.3985 7.71094 20.1876 7.96875 20.1876H22.0312C22.2891 20.1876 22.5 20.3985 22.5 20.6564V21.5939ZM22.5 15.9689C22.5 16.2267 22.2891 16.4376 22.0312 16.4376H7.96875C7.71094 16.4376 7.5 16.2267 7.5 15.9689V15.0314C7.5 14.7735 7.71094 14.5626 7.96875 14.5626H22.0312C22.2891 14.5626 22.5 14.7735 22.5 15.0314V15.9689ZM22.5 10.3439C22.5 10.6017 22.2891 10.8126 22.0312 10.8126H7.96875C7.71094 10.8126 7.5 10.6017 7.5 10.3439V9.40636C7.5 9.14855 7.71094 8.93761 7.96875 8.93761H22.0312C22.2891 8.93761 22.5 9.14855 22.5 9.40636V10.3439Z" fill="#DE0000"/>
</svg>
