<svg width="19" height="19" viewBox="0 0 19 19" fill="none" xmlns="http://www.w3.org/2000/svg">
<path fill-rule="evenodd" clip-rule="evenodd" d="M4.72933 10.9166C8.45925 10.9166 8.62516 12.1816 8.62516 14.8125C8.62516 16.1306 8.62516 17.0684 8.0715 17.755C7.43441 18.5461 6.27483 18.7083 4.72933 18.7083C3.18383 18.7083 2.02425 18.5461 1.38716 17.755C0.833496 17.0684 0.833496 16.1316 0.833496 14.8354L1.521 14.8125H0.833496C0.833496 12.1816 0.999413 10.9166 4.72933 10.9166ZM14.8127 10.9166C18.5426 10.9166 18.7085 12.1816 18.7085 14.8125C18.7085 16.1306 18.7085 17.0684 18.1548 17.755C17.5177 18.5461 16.3582 18.7083 14.8127 18.7083C13.2672 18.7083 12.1076 18.5461 11.4705 17.755C10.9168 17.0684 10.9168 16.1316 10.9168 14.8354L11.6043 14.8125H10.9168C10.9168 12.1816 11.0827 10.9166 14.8127 10.9166ZM4.91831 12.2921L4.72933 12.2916C2.33777 12.2916 2.21513 12.4633 2.20884 14.4706L2.20922 15.2526C2.21357 16.051 2.24398 16.6277 2.45691 16.8933C2.69983 17.194 3.42125 17.3333 4.72933 17.3333C6.03741 17.3333 6.75883 17.1931 7.00175 16.8924C7.25016 16.5835 7.25016 15.8501 7.25016 14.8345C7.25016 12.5426 7.25016 12.3028 4.91831 12.2921ZM15.0016 12.2921L14.8127 12.2916C12.4211 12.2916 12.2985 12.4633 12.2922 14.4706L12.2926 15.2526C12.2969 16.051 12.3273 16.6277 12.5402 16.8933C12.7832 17.194 13.5046 17.3333 14.8127 17.3333C16.1207 17.3333 16.8422 17.1931 17.0851 16.8924C17.3335 16.5835 17.3335 15.8501 17.3335 14.8345C17.3335 12.5426 17.3335 12.3028 15.0016 12.2921ZM4.72933 0.833313C8.45925 0.833313 8.62516 2.09831 8.62516 4.72915C8.62516 6.04731 8.62516 6.98506 8.0715 7.67165C7.43441 8.46273 6.27483 8.62498 4.72933 8.62498C3.18383 8.62498 2.02425 8.46273 1.38716 7.67165C0.833496 6.98506 0.833496 6.04823 0.833496 4.75206L1.521 4.72915H0.833496C0.833496 2.09831 0.999413 0.833313 4.72933 0.833313ZM14.8127 0.833313C18.5426 0.833313 18.7085 2.09831 18.7085 4.72915C18.7085 6.04731 18.7085 6.98506 18.1548 7.67165C17.5177 8.46273 16.3582 8.62498 14.8127 8.62498C13.2672 8.62498 12.1076 8.46273 11.4705 7.67165C10.9168 6.98506 10.9168 6.04823 10.9168 4.75206L11.6043 4.72915H10.9168C10.9168 2.09831 11.0827 0.833313 14.8127 0.833313ZM4.91831 2.20872L4.72933 2.20831C2.33777 2.20831 2.21513 2.37993 2.20884 4.38728L2.20922 5.16931C2.21357 5.96769 2.24398 6.54441 2.45691 6.80998C2.69983 7.11065 3.42125 7.24998 4.72933 7.24998C6.03741 7.24998 6.75883 7.10973 7.00175 6.80906C7.25016 6.50015 7.25016 5.76681 7.25016 4.75115C7.25016 2.45929 7.25016 2.21951 4.91831 2.20872ZM15.0016 2.20872L14.8127 2.20831C12.4211 2.20831 12.2985 2.37993 12.2922 4.38728L12.2926 5.16931C12.2969 5.96769 12.3273 6.54441 12.5402 6.80998C12.7832 7.11065 13.5046 7.24998 14.8127 7.24998C16.1207 7.24998 16.8422 7.10973 17.0851 6.80906C17.3335 6.50015 17.3335 5.76681 17.3335 4.75115C17.3335 2.45929 17.3335 2.21951 15.0016 2.20872Z" fill="#EDEDED"/>
</svg>
