<svg width="20" height="20" viewBox="0 0 20 20" fill="none" xmlns="http://www.w3.org/2000/svg">
<path fill-rule="evenodd" clip-rule="evenodd" d="M9.36583 0.833374C11.608 0.833374 13.4322 2.65754 13.4322 4.89971V5.75404C13.4322 6.13354 13.1242 6.44154 12.7447 6.44154C12.3652 6.44154 12.0572 6.13354 12.0572 5.75404V4.89971C12.0572 3.41471 10.8499 2.20837 9.36583 2.20837H4.89708C3.41483 2.20837 2.2085 3.41471 2.2085 4.89971V15.1013C2.2085 16.5854 3.41483 17.7917 4.89708 17.7917H9.37591C10.8536 17.7917 12.0572 16.589 12.0572 15.1114V14.247C12.0572 13.8675 12.3652 13.5595 12.7447 13.5595C13.1242 13.5595 13.4322 13.8675 13.4322 14.247V15.1114C13.4322 17.348 11.6117 19.1667 9.37591 19.1667H4.89708C2.65675 19.1667 0.833496 17.3435 0.833496 15.1013V4.89971C0.833496 2.65754 2.65675 0.833374 4.89708 0.833374H9.36583ZM16.7726 6.84121L19.4566 9.51329C19.4805 9.53705 19.502 9.56176 19.5216 9.5879L19.4566 9.51329C19.4891 9.54531 19.518 9.5803 19.543 9.61761C19.554 9.63452 19.5647 9.652 19.5745 9.66996C19.5825 9.684 19.5899 9.69866 19.5967 9.71355C19.6025 9.72671 19.6081 9.73988 19.6132 9.75325C19.6201 9.77067 19.6262 9.78858 19.6315 9.80672C19.6355 9.82102 19.6392 9.83528 19.6424 9.84971C19.6465 9.86722 19.6497 9.88483 19.6522 9.90258C19.6537 9.91412 19.6551 9.92622 19.6562 9.9384C19.6583 9.95931 19.6592 9.97964 19.6592 10L19.6545 10.0569L19.6526 10.0933C19.6524 10.0948 19.6522 10.0964 19.652 10.098L19.6592 10C19.6592 10.0509 19.6535 10.1013 19.6426 10.1503C19.6392 10.1648 19.6355 10.1791 19.6314 10.1931C19.6262 10.2115 19.6201 10.2294 19.6134 10.247C19.6081 10.2602 19.6025 10.2734 19.5966 10.2863C19.5899 10.3014 19.5825 10.3161 19.5746 10.3305C19.5647 10.3481 19.554 10.3656 19.5427 10.3825C19.5362 10.3926 19.5292 10.4025 19.5218 10.4122C19.5 10.4409 19.4762 10.468 19.4505 10.493L16.7726 13.1598C16.6388 13.2936 16.4628 13.3605 16.2877 13.3605C16.1117 13.3605 15.9348 13.2936 15.8009 13.158C15.5333 12.8885 15.5342 12.454 15.8028 12.1863L17.306 10.6875H7.93381C7.55431 10.6875 7.24631 10.3795 7.24631 10C7.24631 9.62054 7.55431 9.31254 7.93381 9.31254H17.3078L15.8028 7.81471C15.5342 7.54704 15.5323 7.11254 15.8009 6.84304C16.0686 6.57354 16.5031 6.57354 16.7726 6.84121Z" fill="#EDEDED"/>
</svg>
