<svg width="17" height="20" viewBox="0 0 17 20" fill="none" xmlns="http://www.w3.org/2000/svg">
<path fill-rule="evenodd" clip-rule="evenodd" d="M10.8111 0.833618C10.8504 0.833618 10.889 0.836933 10.9266 0.843298L11.052 0.844068C11.239 0.844068 11.4178 0.920151 11.548 1.0549L16.1909 5.89215C16.3137 6.01957 16.3826 6.19098 16.3826 6.3679V14.7701C16.399 17.07 14.6078 18.9492 12.3042 19.0427L4.95346 19.0436H4.85355C2.60777 18.9928 0.806614 17.1765 0.751742 14.9526L0.751465 4.94982C0.804632 2.67557 2.68288 0.844068 4.94063 0.844068L10.6955 0.843298C10.7331 0.836933 10.7717 0.833618 10.8111 0.833618ZM10.1235 2.2187L4.94246 2.21907C3.42355 2.21907 2.16221 3.44923 2.12646 4.96632V14.7701C2.09255 16.3403 3.33005 17.6337 4.88471 17.6686H12.2767C13.8066 17.6053 15.0185 16.3339 15.0075 14.7756L15.0075 7.2347L13.1651 7.23562C11.4876 7.23103 10.1236 5.86337 10.1236 4.1877L10.1235 2.2187ZM10.6398 12.391C11.0193 12.391 11.3273 12.699 11.3273 13.0785C11.3273 13.458 11.0193 13.766 10.6398 13.766H5.68982C5.31032 13.766 5.00232 13.458 5.00232 13.0785C5.00232 12.699 5.31032 12.391 5.68982 12.391H10.6398ZM8.76533 8.95171C9.14483 8.95171 9.45283 9.25971 9.45283 9.63921C9.45283 10.0187 9.14483 10.3267 8.76533 10.3267H5.689C5.3095 10.3267 5.0015 10.0187 5.0015 9.63921C5.0015 9.25971 5.3095 8.95171 5.689 8.95171H8.76533ZM11.4985 2.98962L11.4986 4.1877C11.4986 5.10803 12.2475 5.85787 13.1669 5.86062L14.254 5.8597L11.4985 2.98962Z" fill="#EDEDED"/>
</svg>
