<svg width="21" height="21" viewBox="0 0 21 21" fill="none" xmlns="http://www.w3.org/2000/svg">
<path fill-rule="evenodd" clip-rule="evenodd" d="M15.0662 0.916626C18.3909 0.916626 20.6248 3.25046 20.6248 6.72371V14.8179C20.6248 18.2911 18.3909 20.625 15.0662 20.625H6.47517C3.15042 20.625 0.916504 18.2911 0.916504 14.8179V6.72371C0.916504 3.25046 3.15042 0.916626 6.47517 0.916626H15.0662ZM15.0662 2.29163H6.47517C3.93417 2.29163 2.2915 4.03054 2.2915 6.72371V14.8179C2.2915 17.511 3.93417 19.25 6.47517 19.25H15.0662C17.6081 19.25 19.2498 17.511 19.2498 14.8179V6.72371C19.2498 4.03054 17.6081 2.29163 15.0662 2.29163ZM6.52751 8.43559C6.90701 8.43559 7.21501 8.74358 7.21501 9.12309V15.4114C7.21501 15.7909 6.90701 16.0989 6.52751 16.0989C6.14801 16.0989 5.84001 15.7909 5.84001 15.4114V9.12309C5.84001 8.74358 6.14801 8.43559 6.52751 8.43559ZM10.8056 5.42525C11.1851 5.42525 11.4931 5.73325 11.4931 6.11275V15.4105C11.4931 15.79 11.1851 16.098 10.8056 16.098C10.4261 16.098 10.1181 15.79 10.1181 15.4105V6.11275C10.1181 5.73325 10.4261 5.42525 10.8056 5.42525ZM15.0134 11.7585C15.3929 11.7585 15.7009 12.0665 15.7009 12.446V15.4105C15.7009 15.79 15.3929 16.098 15.0134 16.098C14.6339 16.098 14.3259 15.79 14.3259 15.4105V12.446C14.3259 12.0665 14.6339 11.7585 15.0134 11.7585Z" fill="#EDEDED"/>
</svg>
