<svg width="19" height="20" viewBox="0 0 19 20" fill="none" xmlns="http://www.w3.org/2000/svg">
<path fill-rule="evenodd" clip-rule="evenodd" d="M10.2447 0.83374C10.9011 0.83374 11.5391 1.10324 11.9965 1.57166C12.453 2.04282 12.7051 2.68907 12.6858 3.34449C12.6876 3.49207 12.7362 3.66257 12.8242 3.81199C12.97 4.05949 13.2001 4.23366 13.4732 4.30516C13.7464 4.37299 14.0324 4.33632 14.2753 4.19241C15.4486 3.52232 16.9419 3.92382 17.612 5.08799L18.1831 6.07707C18.1977 6.10366 18.2106 6.12932 18.2216 6.15591C18.8284 7.30266 18.4232 8.74641 17.2957 9.40549C17.1316 9.49991 16.9987 9.63191 16.9071 9.79141C16.765 10.038 16.7256 10.3313 16.7971 10.6008C16.8704 10.8758 17.0455 11.1041 17.2921 11.2452C17.8485 11.5652 18.2637 12.1042 18.4296 12.7266C18.5956 13.3481 18.5048 14.0227 18.1812 14.5792L17.5726 15.593C16.9025 16.7443 15.4092 17.1431 14.2478 16.4721C14.0929 16.3832 13.9141 16.3346 13.7363 16.33H13.7308C13.4659 16.33 13.1936 16.4427 12.9956 16.6398C12.7949 16.8406 12.6849 17.1082 12.6867 17.3924C12.6803 18.739 11.5849 19.828 10.2447 19.828H9.09614C7.74955 19.828 6.65413 18.7335 6.65413 17.3869C6.6523 17.221 6.60463 17.0487 6.51572 16.8992C6.3718 16.6481 6.13897 16.4684 5.87038 16.3969C5.60363 16.3254 5.31122 16.3648 5.07105 16.5042C4.49538 16.825 3.81797 16.9029 3.1983 16.7287C2.57955 16.5537 2.04513 16.1283 1.73163 15.5646L1.15872 14.5773C0.488634 13.415 0.887384 11.9254 2.04788 11.2544C2.37697 11.0647 2.58138 10.7108 2.58138 10.3313C2.58138 9.95182 2.37697 9.59707 2.04788 9.40732C0.886468 8.73266 0.488634 7.23941 1.1578 6.07707L1.7793 5.05682C2.44022 3.90732 3.93438 3.50216 5.09947 4.17132C5.25805 4.26574 5.43038 4.31341 5.60547 4.31524C6.17655 4.31524 6.65413 3.84407 6.6633 3.26474C6.65963 2.62582 6.91172 2.01257 7.37097 1.54966C7.83205 1.08766 8.44438 0.83374 9.09614 0.83374H10.2447ZM10.2447 2.20874H9.09614C8.81197 2.20874 8.54613 2.31966 8.34538 2.51949C8.14555 2.72024 8.03647 2.98699 8.0383 3.27116C8.01905 4.61132 6.92363 5.69024 5.59722 5.69024C5.17188 5.68566 4.76213 5.57107 4.40647 5.35841C3.90688 5.07424 3.25422 5.24932 2.9618 5.75807L2.34122 6.77832C2.05705 7.27149 2.23122 7.92324 2.73722 8.21749C3.48797 8.65199 3.95638 9.46232 3.95638 10.3313C3.95638 11.2003 3.48797 12.0097 2.73538 12.4452C2.23213 12.7367 2.05797 13.3847 2.34947 13.8889L2.92788 14.8862C3.07088 15.1438 3.30463 15.3299 3.57505 15.406C3.84455 15.4812 4.14155 15.4491 4.38905 15.3116C4.75297 15.098 5.17647 14.9871 5.6018 14.9871C5.81172 14.9871 6.02163 15.0137 6.22697 15.0687C6.84663 15.2355 7.38472 15.6498 7.70372 16.2062C7.91088 16.5555 8.02547 16.9634 8.02913 17.3796C8.02913 17.9754 8.50763 18.453 9.09614 18.453H10.2447C10.8305 18.453 11.309 17.9782 11.3117 17.3924C11.3081 16.7452 11.5611 16.1302 12.024 15.6672C12.4805 15.2107 13.1185 14.9367 13.7565 14.955C14.1745 14.9651 14.5769 15.0778 14.9316 15.2795C15.4422 15.5719 16.094 15.3977 16.3891 14.8936L16.9978 13.8788C17.1335 13.6451 17.1729 13.3517 17.1005 13.0813C17.029 12.8109 16.8493 12.5762 16.6073 12.4378C16.0408 12.1115 15.6366 11.5853 15.4688 10.9547C15.3029 10.3359 15.3936 9.66032 15.7172 9.10391C15.9281 8.73724 16.237 8.42832 16.6073 8.21566C17.1041 7.92507 17.2783 7.27516 16.9896 6.76916C16.9776 6.74899 16.9666 6.72791 16.9575 6.70591L16.4203 5.77457C16.1279 5.26582 15.4771 5.09074 14.9665 5.38132C14.4146 5.70766 13.7583 5.80116 13.1276 5.63524C12.4979 5.47207 11.9699 5.07332 11.6408 4.51049C11.43 4.15849 11.3154 3.74874 11.3117 3.33166C11.32 3.01816 11.21 2.73674 11.0101 2.53049C10.8112 2.32516 10.5316 2.20874 10.2447 2.20874ZM9.67446 7.22667C11.3859 7.22667 12.7783 8.62 12.7783 10.3314C12.7783 12.0428 11.3859 13.4343 9.67446 13.4343C7.96304 13.4343 6.57063 12.0428 6.57063 10.3314C6.57063 8.62 7.96304 7.22667 9.67446 7.22667ZM9.67446 8.60167C8.72113 8.60167 7.94563 9.37808 7.94563 10.3314C7.94563 11.2847 8.72113 12.0593 9.67446 12.0593C10.6278 12.0593 11.4033 11.2847 11.4033 10.3314C11.4033 9.37808 10.6278 8.60167 9.67446 8.60167Z" fill="white"/>
</svg>
