<svg width="21" height="17" viewBox="0 0 21 17" fill="none" xmlns="http://www.w3.org/2000/svg">
<path fill-rule="evenodd" clip-rule="evenodd" d="M10.8959 10.2129L10.9994 10.2129L11.2309 10.2137C13.0006 10.2253 17.0449 10.4041 17.0449 13.1453C17.0449 15.8684 13.1416 16.046 11.2585 16.0576L10.5608 16.0576C8.79102 16.046 4.74597 15.8674 4.74597 13.1297C4.74597 10.4031 8.79102 10.2253 10.5608 10.2137L10.7924 10.2129C10.8283 10.2129 10.8628 10.2129 10.8959 10.2129ZM10.8959 11.5879C8.71789 11.5879 6.12097 11.8555 6.12097 13.1297C6.12097 14.375 8.56288 14.6662 10.6968 14.6827L10.8959 14.6834C13.0739 14.6834 15.6699 14.4167 15.6699 13.1453C15.6699 11.8583 13.0739 11.5879 10.8959 11.5879ZM18.1867 9.84087C20.4078 10.1736 20.8744 11.2168 20.8744 12.0335C20.8744 12.5322 20.6782 13.4425 19.3674 13.942C19.2867 13.9723 19.2042 13.987 19.1226 13.987C18.8458 13.987 18.5845 13.8183 18.48 13.5442C18.3444 13.1895 18.5231 12.7916 18.8779 12.6569C19.4994 12.4204 19.4994 12.1591 19.4994 12.0335C19.4994 11.632 18.9888 11.3515 17.9823 11.2012C17.6074 11.1444 17.3479 10.7951 17.4039 10.4184C17.4598 10.0425 17.8081 9.79229 18.1867 9.84087ZM4.387 10.4184C4.44292 10.7951 4.1835 11.1444 3.80859 11.2012C2.80209 11.3515 2.2915 11.632 2.2915 12.0335C2.2915 12.1591 2.2915 12.4195 2.91392 12.6569C3.26867 12.7916 3.44742 13.1895 3.31175 13.5442C3.20725 13.8183 2.946 13.987 2.66917 13.987C2.58759 13.987 2.50509 13.9723 2.42442 13.942C1.11267 13.4415 0.916504 12.5313 0.916504 12.0335C0.916504 11.2177 1.38309 10.1736 3.60509 9.84087C3.98367 9.7932 4.33017 10.0425 4.387 10.4184ZM10.8959 0.666687C13.2059 0.666687 15.0841 2.54585 15.0841 4.85494C15.0841 7.16402 13.2059 9.04319 10.8959 9.04319H10.8711C9.7528 9.03952 8.70505 8.60135 7.92039 7.80935C7.13389 7.01827 6.70397 5.96777 6.70852 4.85219C6.70852 2.54585 8.5868 0.666687 10.8959 0.666687ZM10.8959 2.04169C9.34489 2.04169 8.08353 3.30394 8.08353 4.85494C8.0808 5.6066 8.36864 6.30969 8.89572 6.84044C9.4228 7.37119 10.125 7.66544 10.873 7.66819L10.8959 8.35569V7.66819C12.4469 7.66819 13.7091 6.40685 13.7091 4.85494C13.7091 3.30394 12.4469 2.04169 10.8959 2.04169ZM16.5691 1.56456C18.1806 1.82948 19.3512 3.20815 19.3512 4.84256C19.3476 6.48798 18.1183 7.89965 16.4912 8.1279C16.4591 8.13248 16.4271 8.13431 16.3959 8.13431C16.0586 8.13431 15.7643 7.8859 15.7157 7.54215C15.6635 7.1654 15.9247 6.81798 16.3015 6.76573C17.2548 6.6319 17.9744 5.80506 17.9762 4.84073C17.9762 3.88465 17.2906 3.07615 16.3455 2.92123C15.9715 2.85981 15.7176 2.50598 15.779 2.13106C15.8413 1.75615 16.1924 1.50498 16.5691 1.56456ZM6.0128 2.13106C6.07422 2.50598 5.8203 2.85981 5.4463 2.92123C4.50122 3.07615 3.81555 3.88465 3.81555 4.84256C3.81739 5.80506 4.53697 6.63281 5.48939 6.76573C5.86614 6.81798 6.12739 7.1654 6.07514 7.54215C6.02655 7.8859 5.7323 8.13431 5.39497 8.13431C5.3638 8.13431 5.33172 8.13248 5.29964 8.1279C3.67255 7.89965 2.44422 6.48798 2.44055 4.8444C2.44055 3.20815 3.61114 1.82948 5.22264 1.56456C5.60855 1.50406 5.95047 1.75798 6.0128 2.13106Z" fill="#EDEDED"/>
</svg>
