<svg width="21" height="21" viewBox="0 0 21 21" fill="none" xmlns="http://www.w3.org/2000/svg">
<path fill-rule="evenodd" clip-rule="evenodd" d="M10.3216 0C15.6916 0 20.0596 4.368 20.0596 9.738C20.0596 12.2715 19.0873 14.5823 17.4962 16.3165L20.627 19.4407C20.92 19.7337 20.921 20.2077 20.628 20.5007C20.482 20.6487 20.289 20.7217 20.097 20.7217C19.906 20.7217 19.714 20.6487 19.567 20.5027L16.3984 17.343C14.7317 18.6778 12.6183 19.477 10.3216 19.477C4.95158 19.477 0.582581 15.108 0.582581 9.738C0.582581 4.368 4.95158 0 10.3216 0ZM10.3216 1.5C5.77858 1.5 2.08258 5.195 2.08258 9.738C2.08258 14.281 5.77858 17.977 10.3216 17.977C14.8636 17.977 18.5596 14.281 18.5596 9.738C18.5596 5.195 14.8636 1.5 10.3216 1.5Z" fill="#333333"/>
</svg>
