<svg width="19" height="20" viewBox="0 0 19 20" fill="none" xmlns="http://www.w3.org/2000/svg">
<path fill-rule="evenodd" clip-rule="evenodd" d="M10.245 0.833794C10.9013 0.833794 11.5393 1.10329 11.9967 1.57171C12.4532 2.04288 12.7053 2.68913 12.686 3.34454C12.6879 3.49213 12.7365 3.66263 12.8245 3.81204C12.9702 4.05954 13.2003 4.23371 13.4735 4.30521C13.7466 4.37304 14.0326 4.33638 14.2755 4.19246C15.4489 3.52238 16.9421 3.92388 17.6122 5.08804L18.1833 6.07713C18.198 6.10371 18.2108 6.12938 18.2218 6.15596C18.8286 7.30271 18.4235 8.74646 17.296 9.40554C17.1319 9.49996 16.999 9.63196 16.9073 9.79146C16.7652 10.038 16.7258 10.3314 16.7973 10.6009C16.8706 10.8759 17.0457 11.1041 17.2923 11.2453C17.8487 11.5652 18.264 12.1042 18.4299 12.7266C18.5958 13.3481 18.505 14.0228 18.1815 14.5792L17.5728 15.593C16.9027 16.7444 15.4095 17.1431 14.248 16.4721C14.0931 16.3832 13.9144 16.3346 13.7365 16.33H13.731C13.4661 16.33 13.1939 16.4428 12.9959 16.6399C12.7951 16.8406 12.6851 17.1083 12.687 17.3925C12.6805 18.739 11.5851 19.828 10.245 19.828H9.09638C7.7498 19.828 6.65438 18.7335 6.65438 17.387C6.65255 17.221 6.60488 17.0487 6.51596 16.8993C6.37205 16.6481 6.13921 16.4685 5.87063 16.397C5.60388 16.3255 5.31146 16.3649 5.0713 16.5042C4.49563 16.825 3.81821 16.903 3.19854 16.7288C2.5798 16.5537 2.04538 16.1284 1.73188 15.5646L1.15896 14.5774C0.488878 13.415 0.887628 11.9255 2.04813 11.2545C2.37721 11.0647 2.58163 10.7109 2.58163 10.3314C2.58163 9.95188 2.37721 9.59713 2.04813 9.40738C0.886712 8.73271 0.488878 7.23946 1.15805 6.07713L1.77955 5.05688C2.44046 3.90738 3.93463 3.50221 5.09971 4.17138C5.2583 4.26579 5.43063 4.31346 5.60571 4.31529C6.1768 4.31529 6.65438 3.84413 6.66355 3.26479C6.65988 2.62588 6.91196 2.01263 7.37121 1.54971C7.83229 1.08771 8.44463 0.833794 9.09638 0.833794H10.245ZM10.245 2.20879H9.09638C8.81221 2.20879 8.54638 2.31971 8.34563 2.51954C8.1458 2.72029 8.03671 2.98704 8.03855 3.27121C8.0193 4.61138 6.92388 5.69029 5.59746 5.69029C5.17213 5.68571 4.76238 5.57113 4.40671 5.35846C3.90713 5.07429 3.25446 5.24938 2.96205 5.75813L2.34146 6.77838C2.0573 7.27154 2.23146 7.92329 2.73746 8.21754C3.48821 8.65204 3.95663 9.46238 3.95663 10.3314C3.95663 11.2004 3.48821 12.0098 2.73563 12.4452C2.23238 12.7367 2.05821 13.3848 2.34971 13.889L2.92813 14.8863C3.07113 15.1439 3.30488 15.33 3.57529 15.406C3.84479 15.4812 4.1418 15.4491 4.3893 15.3116C4.75321 15.098 5.17671 14.9871 5.60205 14.9871C5.81196 14.9871 6.02188 15.0137 6.22721 15.0687C6.84688 15.2355 7.38496 15.6499 7.70396 16.2063C7.91113 16.5555 8.02571 16.9635 8.02938 17.3796C8.02938 17.9755 8.50788 18.453 9.09638 18.453H10.245C10.8307 18.453 11.3092 17.9782 11.312 17.3925C11.3083 16.7453 11.5613 16.1302 12.0242 15.6673C12.4807 15.2108 13.1187 14.9367 13.7567 14.955C14.1747 14.9651 14.5771 15.0779 14.9319 15.2795C15.4425 15.572 16.0942 15.3978 16.3894 14.8936L16.998 13.8789C17.1337 13.6451 17.1731 13.3518 17.1007 13.0814C17.0292 12.811 16.8495 12.5763 16.6075 12.4379C16.041 12.1115 15.6368 11.5854 15.469 10.9547C15.3031 10.336 15.3939 9.66038 15.7175 9.10396C15.9283 8.73729 16.2372 8.42838 16.6075 8.21571C17.1044 7.92513 17.2785 7.27521 16.9898 6.76921C16.9779 6.74904 16.9669 6.72796 16.9577 6.70596L16.4205 5.77463C16.1281 5.26588 15.4773 5.09079 14.9667 5.38138C14.4149 5.70771 13.7585 5.80121 13.1279 5.63529C12.4981 5.47213 11.9701 5.07338 11.641 4.51054C11.4302 4.15854 11.3156 3.74879 11.312 3.33171C11.3202 3.01821 11.2102 2.73679 11.0104 2.53054C10.8115 2.32521 10.5319 2.20879 10.245 2.20879ZM9.6747 7.22672C11.3861 7.22672 12.7785 8.62005 12.7785 10.3315C12.7785 12.0429 11.3861 13.4344 9.6747 13.4344C7.96329 13.4344 6.57087 12.0429 6.57087 10.3315C6.57087 8.62005 7.96329 7.22672 9.6747 7.22672ZM9.6747 8.60172C8.72137 8.60172 7.94587 9.37814 7.94587 10.3315C7.94587 11.2848 8.72137 12.0594 9.6747 12.0594C10.628 12.0594 11.4035 11.2848 11.4035 10.3315C11.4035 9.37814 10.628 8.60172 9.6747 8.60172Z" fill="#EDEDED"/>
</svg>
