<svg width="20" height="20" viewBox="0 0 20 20" fill="none" xmlns="http://www.w3.org/2000/svg">
<path d="M10.0584 18.3167C8.88341 18.3167 7.70007 17.8667 6.80841 16.975L3.03341 13.2C2.11674 12.2833 1.63341 11.0167 1.69174 9.72499L1.89174 5.55833C1.98341 3.56666 3.55841 1.99166 5.55841 1.89166L9.72507 1.69166C11.0167 1.64166 12.2834 2.11666 13.2001 3.03333L16.9751 6.80833C18.7667 8.59999 18.7667 11.525 16.9751 13.3167L13.3167 16.975C12.4167 17.8667 11.2417 18.3167 10.0584 18.3167ZM3.91674 12.3083L7.69174 16.0833C8.32507 16.7167 9.16674 17.0667 10.0584 17.0667C10.9501 17.0667 11.7917 16.7167 12.4251 16.0833L16.0834 12.425C16.7167 11.7917 17.0667 10.95 17.0667 10.0583C17.0667 9.16666 16.7167 8.32499 16.0834 7.69166L12.3084 3.91666C11.6417 3.24999 10.7167 2.89166 9.78341 2.94166L5.61674 3.14166C4.25841 3.19999 3.20007 4.25833 3.13341 5.60833L2.93341 9.77499C2.89174 10.7167 3.25007 11.6417 3.91674 12.3083Z" fill="#292D32"/>
<path d="M7.91683 10.625C6.42516 10.625 5.2085 9.40834 5.2085 7.91668C5.2085 6.42501 6.42516 5.20834 7.91683 5.20834C9.4085 5.20834 10.6252 6.42501 10.6252 7.91668C10.6252 9.40834 9.4085 10.625 7.91683 10.625ZM7.91683 6.45834C7.11683 6.45834 6.4585 7.11668 6.4585 7.91668C6.4585 8.71668 7.11683 9.37501 7.91683 9.37501C8.71683 9.37501 9.37516 8.71668 9.37516 7.91668C9.37516 7.11668 8.71683 6.45834 7.91683 6.45834Z" fill="#292D32"/>
</svg>