<svg width="21" height="20" viewBox="0 0 21 20" fill="none" xmlns="http://www.w3.org/2000/svg">
<path d="M12.725 18.0417H4.01668C3.10001 18.0417 2.2917 17.5667 1.85003 16.7667C1.40836 15.9667 1.43338 15.025 1.91671 14.25L4.22501 10.5583C4.40834 10.2667 4.40834 9.72501 4.22501 9.44168L1.91671 5.75001C1.43338 4.97501 1.40836 4.03334 1.85003 3.23334C2.2917 2.43334 3.10834 1.95834 4.01668 1.95834H13.55C14.3333 1.95834 15.2417 2.45834 15.65 3.12501L19.1334 8.69168C19.6 9.44168 19.5584 10.5917 19.025 11.3L14.7084 17.05C14.2834 17.6167 13.4334 18.0417 12.725 18.0417ZM4.01668 3.20834C3.56668 3.20834 3.15836 3.44168 2.9417 3.84168C2.72503 4.24168 2.73334 4.70834 2.97501 5.09168L5.28336 8.78334C5.71669 9.48334 5.71669 10.5333 5.28336 11.2333L2.97501 14.925C2.73334 15.3083 2.72503 15.775 2.9417 16.175C3.15836 16.575 3.56668 16.8083 4.01668 16.8083H12.725C13.0417 16.8083 13.5167 16.5667 13.7083 16.3167L18.0251 10.5667C18.2501 10.2667 18.2751 9.69168 18.0751 9.37501L14.5917 3.80834C14.4083 3.50834 13.9 3.23334 13.55 3.23334H4.01668V3.20834Z" fill="#292D32"/>
</svg>
