<svg width="30" height="31" viewBox="0 0 30 31" fill="none" xmlns="http://www.w3.org/2000/svg">
<path d="M27.0234 8.33325H4.6875C4.16953 8.33325 3.75 7.91372 3.75 7.39575C3.75 6.87778 4.16953 6.45825 4.6875 6.45825H27.1875C27.7055 6.45825 28.125 6.03872 28.125 5.52075C28.125 3.96743 26.8658 2.70825 25.3125 2.70825H3.75C1.67871 2.70825 0 4.38696 0 6.45825V25.2083C0 27.2795 1.67871 28.9583 3.75 28.9583H27.0234C28.6652 28.9583 30 27.6967 30 26.1458V11.1458C30 9.59478 28.6652 8.33325 27.0234 8.33325ZM24.375 20.5208C23.3396 20.5208 22.5 19.6811 22.5 18.6458C22.5 17.6104 23.3396 16.7708 24.375 16.7708C25.4104 16.7708 26.25 17.6104 26.25 18.6458C26.25 19.6811 25.4104 20.5208 24.375 20.5208Z" fill="#FFC700"/>
</svg>
