<svg width="21" height="17" viewBox="0 0 21 17" fill="none" xmlns="http://www.w3.org/2000/svg">
<path fill-rule="evenodd" clip-rule="evenodd" d="M10.8961 10.2128L10.9996 10.2129L11.2312 10.2136C13.0009 10.2253 17.0451 10.4041 17.0451 13.1452C17.0451 15.8684 13.1419 16.046 11.2588 16.0576L10.5611 16.0576C8.79127 16.0459 4.74621 15.8674 4.74621 13.1297C4.74621 10.4031 8.79127 10.2252 10.5611 10.2136L10.7926 10.2129C10.8285 10.2128 10.8631 10.2128 10.8961 10.2128ZM10.8961 11.5878C8.71813 11.5878 6.12121 11.8555 6.12121 13.1297C6.12121 14.375 8.56313 14.6661 10.6971 14.6826L10.8961 14.6834C13.0741 14.6834 15.6701 14.4167 15.6701 13.1452C15.6701 11.8582 13.0741 11.5878 10.8961 11.5878ZM18.1869 9.84084C20.408 10.1736 20.8746 11.2168 20.8746 12.0335C20.8746 12.5322 20.6784 13.4424 19.3676 13.942C19.2869 13.9723 19.2044 13.9869 19.1228 13.9869C18.846 13.9869 18.5848 13.8183 18.4803 13.5442C18.3446 13.1894 18.5233 12.7916 18.8781 12.6568C19.4996 12.4203 19.4996 12.1591 19.4996 12.0335C19.4996 11.632 18.989 11.3515 17.9825 11.2012C17.6076 11.1443 17.3482 10.7951 17.4041 10.4183C17.46 10.0425 17.8083 9.79226 18.1869 9.84084ZM4.38725 10.4183C4.44316 10.7951 4.18375 11.1443 3.80883 11.2012C2.80233 11.3515 2.29175 11.632 2.29175 12.0335C2.29175 12.1591 2.29175 12.4194 2.91416 12.6568C3.26891 12.7916 3.44766 13.1894 3.312 13.5442C3.2075 13.8183 2.94625 13.9869 2.66941 13.9869C2.58783 13.9869 2.50533 13.9723 2.42466 13.942C1.11291 13.4415 0.916748 12.5313 0.916748 12.0335C0.916748 11.2177 1.38333 10.1736 3.60533 9.84084C3.98391 9.79317 4.33041 10.0425 4.38725 10.4183ZM10.8961 0.666656C13.2061 0.666656 15.0844 2.54582 15.0844 4.85491C15.0844 7.16399 13.2061 9.04316 10.8961 9.04316H10.8714C9.75305 9.03949 8.7053 8.60132 7.92063 7.80932C7.13413 7.01824 6.70421 5.96774 6.70876 4.85216C6.70876 2.54582 8.58705 0.666656 10.8961 0.666656ZM10.8961 2.04166C9.34513 2.04166 8.08378 3.30391 8.08378 4.85491C8.08105 5.60657 8.36888 6.30966 8.89597 6.84041C9.42305 7.37116 10.1252 7.66541 10.8732 7.66816L10.8961 8.35566V7.66816C12.4471 7.66816 13.7094 6.40682 13.7094 4.85491C13.7094 3.30391 12.4471 2.04166 10.8961 2.04166ZM16.5694 1.56453C18.1809 1.82945 19.3515 3.20811 19.3515 4.84253C19.3478 6.48795 18.1185 7.89961 16.4915 8.12786C16.4594 8.13245 16.4273 8.13428 16.3961 8.13428C16.0588 8.13428 15.7645 7.88587 15.716 7.54212C15.6637 7.16537 15.925 6.81795 16.3017 6.7657C17.2551 6.63187 17.9746 5.80503 17.9765 4.8407C17.9765 3.88462 17.2908 3.07611 16.3457 2.9212C15.9717 2.85978 15.7178 2.50595 15.7792 2.13103C15.8415 1.75611 16.1926 1.50495 16.5694 1.56453ZM6.01305 2.13103C6.07446 2.50595 5.82055 2.85978 5.44655 2.9212C4.50146 3.07611 3.8158 3.88461 3.8158 4.84253C3.81763 5.80503 4.53721 6.63278 5.48963 6.7657C5.86638 6.81795 6.12763 7.16537 6.07538 7.54212C6.0268 7.88587 5.73255 8.13428 5.39522 8.13428C5.36405 8.13428 5.33196 8.13245 5.29988 8.12786C3.6728 7.89961 2.44446 6.48795 2.4408 4.84436C2.4408 3.20811 3.61138 1.82945 5.22288 1.56453C5.6088 1.50403 5.95071 1.75795 6.01305 2.13103Z" fill="#EDEDED"/>
</svg>
