<svg width="19" height="19" viewBox="0 0 19 19" fill="none" xmlns="http://www.w3.org/2000/svg">
<path fill-rule="evenodd" clip-rule="evenodd" d="M4.72909 10.9166C8.459 10.9166 8.62492 12.1816 8.62492 14.8125C8.62492 16.1306 8.62492 17.0684 8.07125 17.755C7.43417 18.5461 6.27459 18.7083 4.72909 18.7083C3.18359 18.7083 2.024 18.5461 1.38692 17.755C0.833252 17.0684 0.833252 16.1316 0.833252 14.8354L1.52075 14.8125H0.833252C0.833252 12.1816 0.999169 10.9166 4.72909 10.9166ZM14.8124 10.9166C18.5423 10.9166 18.7083 12.1816 18.7083 14.8125C18.7083 16.1306 18.7083 17.0684 18.1546 17.755C17.5175 18.5461 16.3579 18.7083 14.8124 18.7083C13.2669 18.7083 12.1073 18.5461 11.4703 17.755C10.9166 17.0684 10.9166 16.1316 10.9166 14.8354L11.6041 14.8125H10.9166C10.9166 12.1816 11.0825 10.9166 14.8124 10.9166ZM4.91807 12.2921L4.72909 12.2916C2.33753 12.2916 2.21488 12.4633 2.20859 14.4706L2.20898 15.2526C2.21332 16.051 2.24374 16.6277 2.45667 16.8933C2.69959 17.194 3.421 17.3333 4.72909 17.3333C6.03717 17.3333 6.75859 17.1931 7.0015 16.8924C7.24992 16.5835 7.24992 15.8501 7.24992 14.8345C7.24992 12.5426 7.24992 12.3028 4.91807 12.2921ZM15.0014 12.2921L14.8124 12.2916C12.4209 12.2916 12.2982 12.4633 12.2919 14.4706L12.2923 15.2526C12.2967 16.051 12.3271 16.6277 12.54 16.8933C12.7829 17.194 13.5043 17.3333 14.8124 17.3333C16.1205 17.3333 16.8419 17.1931 17.0848 16.8924C17.3333 16.5835 17.3333 15.8501 17.3333 14.8345C17.3333 12.5426 17.3333 12.3028 15.0014 12.2921ZM4.72909 0.833313C8.459 0.833313 8.62492 2.09831 8.62492 4.72915C8.62492 6.04731 8.62492 6.98506 8.07125 7.67165C7.43417 8.46273 6.27459 8.62498 4.72909 8.62498C3.18359 8.62498 2.024 8.46273 1.38692 7.67165C0.833252 6.98506 0.833252 6.04823 0.833252 4.75206L1.52075 4.72915H0.833252C0.833252 2.09831 0.999169 0.833313 4.72909 0.833313ZM14.8124 0.833313C18.5423 0.833313 18.7083 2.09831 18.7083 4.72915C18.7083 6.04731 18.7083 6.98506 18.1546 7.67165C17.5175 8.46273 16.3579 8.62498 14.8124 8.62498C13.2669 8.62498 12.1073 8.46273 11.4703 7.67165C10.9166 6.98506 10.9166 6.04823 10.9166 4.75206L11.6041 4.72915H10.9166C10.9166 2.09831 11.0825 0.833313 14.8124 0.833313ZM4.91807 2.20872L4.72909 2.20831C2.33753 2.20831 2.21488 2.37993 2.20859 4.38728L2.20898 5.16931C2.21332 5.96769 2.24374 6.54441 2.45667 6.80998C2.69959 7.11065 3.421 7.24998 4.72909 7.24998C6.03717 7.24998 6.75859 7.10973 7.0015 6.80906C7.24992 6.50015 7.24992 5.76681 7.24992 4.75115C7.24992 2.45929 7.24992 2.21951 4.91807 2.20872ZM15.0014 2.20872L14.8124 2.20831C12.4209 2.20831 12.2982 2.37993 12.2919 4.38728L12.2923 5.16931C12.2967 5.96769 12.3271 6.54441 12.54 6.80998C12.7829 7.11065 13.5043 7.24998 14.8124 7.24998C16.1205 7.24998 16.8419 7.10973 17.0848 6.80906C17.3333 6.50015 17.3333 5.76681 17.3333 4.75115C17.3333 2.45929 17.3333 2.21951 15.0014 2.20872Z" fill="#EDEDED"/>
</svg>