<svg width="20" height="20" viewBox="0 0 20 20" fill="none" xmlns="http://www.w3.org/2000/svg">
<path d="M17.3691 8.49169H14.9608C12.9858 8.49169 11.3775 6.88335 11.3775 4.90835V2.50002C11.3775 2.04169 11.0025 1.66669 10.5441 1.66669H7.01081C4.44414 1.66669 2.36914 3.33335 2.36914 6.30835V13.6917C2.36914 16.6667 4.44414 18.3334 7.01081 18.3334H13.5608C16.1275 18.3334 18.2025 16.6667 18.2025 13.6917V9.32502C18.2025 8.86669 17.8275 8.49169 17.3691 8.49169Z" fill="#0047AB" fill-opacity="0.2"/>
<path d="M13.4526 1.84164C13.111 1.49997 12.5193 1.73331 12.5193 2.20831V5.11664C12.5193 6.33331 13.5526 7.34164 14.811 7.34164C15.6026 7.34997 16.7026 7.34997 17.6443 7.34997C18.1193 7.34997 18.3693 6.79164 18.036 6.45831C16.836 5.24997 14.686 3.07497 13.4526 1.84164Z" fill="#0047AB"/>
</svg>
