<svg width="16" height="15" viewBox="0 0 16 15" fill="none" xmlns="http://www.w3.org/2000/svg">
<path fill-rule="evenodd" clip-rule="evenodd" d="M14.5629 13.3297C14.8734 13.3297 15.1254 13.5817 15.1254 13.8922C15.1254 14.2027 14.8734 14.4547 14.5629 14.4547H9.12311C8.81261 14.4547 8.56061 14.2027 8.56061 13.8922C8.56061 13.5817 8.81261 13.3297 9.12311 13.3297H14.5629ZM11.0872 0.740232C11.1247 0.769482 12.3795 1.74448 12.3795 1.74448C12.8355 2.01598 13.1917 2.50123 13.3267 3.07573C13.461 3.64423 13.3635 4.23073 13.0507 4.72648C13.0486 4.72979 13.0465 4.73305 13.0393 4.74277L13.0337 4.75028C12.9829 4.81719 12.7622 5.09623 11.6484 6.49167C11.6381 6.50996 11.6264 6.52709 11.6136 6.54373C11.5948 6.56827 11.5743 6.59082 11.5525 6.61135C11.4765 6.707 11.3963 6.80751 11.3119 6.91318L11.141 7.12728C10.7883 7.56901 10.3699 8.09281 9.87354 8.7141L9.61881 9.03293C8.66056 10.2323 7.43333 11.7679 5.86121 13.7347C5.51696 14.1637 5.00096 14.4135 4.44671 14.4202L1.71746 14.4547H1.70996C1.44971 14.4547 1.22321 14.2762 1.16246 14.022L0.548206 11.4187C0.421456 10.8795 0.547456 10.323 0.893206 9.89098L7.95821 1.05448C7.96121 1.05148 7.96346 1.04773 7.96646 1.04473C8.74121 0.118482 10.1422 -0.018018 11.0872 0.740232ZM7.1705 3.84025L1.77146 10.5937C1.64321 10.7542 1.59596 10.9612 1.64321 11.16L2.15396 13.3237L4.43321 13.2952C4.64996 13.293 4.85021 13.1962 4.98296 13.0312C5.66657 12.1759 6.52575 11.1009 7.4091 9.99551L7.72162 9.60442L8.03468 9.21266C8.86312 8.17592 9.68154 7.15155 10.3663 6.29415L7.1705 3.84025ZM8.83271 1.76248L7.87325 2.96125L11.0688 5.41445C11.6839 4.64402 12.0885 4.1366 12.126 4.08823C12.249 3.88873 12.297 3.60673 12.2325 3.33523C12.1665 3.05698 11.9932 2.82073 11.7435 2.66998C11.6902 2.63323 10.4265 1.65223 10.3875 1.62148C9.91196 1.24048 9.21821 1.30648 8.83271 1.76248Z" fill="#076935"/>
</svg>
