<svg width="16" height="13" viewBox="0 0 16 13" fill="none" xmlns="http://www.w3.org/2000/svg">
<path fill-rule="evenodd" clip-rule="evenodd" d="M8.00218 0.000366211C11.1042 0.00261621 13.8897 2.17687 15.4542 5.81737C15.5157 5.95912 15.5157 6.11962 15.4542 6.26137C13.8904 9.90262 11.1042 12.0769 8.00218 12.0791H7.99768C4.89568 12.0769 2.11018 9.90262 0.545685 6.26137C0.484935 6.11962 0.484935 5.95912 0.545685 5.81737C2.11018 2.17687 4.89643 0.00261621 7.99768 0.000366211H8.00218ZM7.99993 1.12537C5.42293 1.12612 3.07243 2.95837 1.67743 6.03937C3.07243 9.12112 5.42218 10.9534 7.99993 10.9541C10.5777 10.9534 12.9274 9.12112 14.3224 6.03937C12.9274 2.95837 10.5777 1.12612 7.99993 1.12537ZM7.99971 3.10597C9.61746 3.10597 10.9337 4.42222 10.9337 6.03997C10.9337 7.65697 9.61746 8.97247 7.99971 8.97247C6.38196 8.97247 5.06646 7.65697 5.06646 6.03997C5.06646 4.42222 6.38196 3.10597 7.99971 3.10597ZM7.99971 4.23097C7.00221 4.23097 6.19146 5.04247 6.19146 6.03997C6.19146 7.03672 7.00221 7.84747 7.99971 7.84747C8.99721 7.84747 9.80871 7.03672 9.80871 6.03997C9.80871 5.04247 8.99721 4.23097 7.99971 4.23097Z" fill="currentColor"/>
</svg>
