<svg width="20" height="20" viewBox="0 0 20 20" fill="none" xmlns="http://www.w3.org/2000/svg">
<path fill-rule="evenodd" clip-rule="evenodd" d="M7.83909 0.833328C8.71084 0.834245 9.54134 1.25041 10.062 1.94616L10.8971 3.05716C11.162 3.40916 11.5828 3.61908 12.0228 3.61999H14.616C18.1562 3.61999 19.8053 5.43408 19.8053 9.32899L19.7796 13.8821C19.7787 17.5194 17.5182 19.7799 13.879 19.7799H6.74551C3.09901 19.7799 0.833008 17.5185 0.833008 13.8793V6.73025C0.833008 2.817 2.57376 0.833328 6.00576 0.833328H7.83909ZM7.83817 2.20833H6.00576C3.34376 2.20833 2.20801 3.56133 2.20801 6.73025V13.8793C2.20801 16.798 3.81951 18.4049 6.74551 18.4049H13.879C16.7977 18.4049 18.4046 16.798 18.4046 13.8793V13.8766L18.4303 9.32533C18.4303 6.20958 17.3614 4.995 14.616 4.995H12.0218C11.1519 4.99408 10.3214 4.57883 9.79892 3.884L8.96201 2.77116C8.69892 2.41825 8.27817 2.20924 7.83817 2.20833ZM14.3229 12.0284C14.7024 12.0284 15.0104 12.3364 15.0104 12.7159C15.0104 13.0954 14.7024 13.4034 14.3229 13.4034H6.31577C5.93627 13.4034 5.62827 13.0954 5.62827 12.7159C5.62827 12.3364 5.93627 12.0284 6.31577 12.0284H14.3229Z" fill="#EDEDED"/>
</svg>
