<svg width="20" height="20" viewBox="0 0 20 20" fill="none" xmlns="http://www.w3.org/2000/svg">
<path d="M9.82467 9.89999C9.37467 9.89999 8.91634 9.81666 8.55801 9.65833L3.64134 7.475C2.39134 6.91666 2.20801 6.16666 2.20801 5.75833C2.20801 5.34999 2.39134 4.59999 3.64134 4.04166L8.55801 1.85833C9.28301 1.53333 10.3747 1.53333 11.0997 1.85833L16.0247 4.04166C17.2663 4.59166 17.458 5.34999 17.458 5.75833C17.458 6.16666 17.2747 6.91666 16.0247 7.475L11.0997 9.65833C10.733 9.825 10.283 9.89999 9.82467 9.89999ZM9.82467 2.86666C9.54134 2.86666 9.26634 2.90833 9.06634 2.99999L4.14967 5.18333C3.64134 5.41666 3.45801 5.64999 3.45801 5.75833C3.45801 5.86666 3.64134 6.10833 4.14134 6.33333L9.05801 8.51666C9.45801 8.69166 10.183 8.69166 10.583 8.51666L15.508 6.33333C16.0163 6.10833 16.1997 5.86666 16.1997 5.75833C16.1997 5.64999 16.0163 5.40833 15.508 5.18333L10.5913 2.99999C10.3913 2.91666 10.108 2.86666 9.82467 2.86666Z" fill="#292D32"/>
<path d="M10 14.2417C9.68333 14.2417 9.36667 14.175 9.06667 14.0417L3.40833 11.525C2.55 11.15 1.875 10.1083 1.875 9.16667C1.875 8.82501 2.15833 8.54167 2.5 8.54167C2.84167 8.54167 3.125 8.82501 3.125 9.16667C3.125 9.62501 3.5 10.2 3.91667 10.3917L9.575 12.9083C9.84167 13.025 10.15 13.025 10.425 12.9083L16.0833 10.3917C16.5 10.2083 16.875 9.62501 16.875 9.16667C16.875 8.82501 17.1583 8.54167 17.5 8.54167C17.8417 8.54167 18.125 8.82501 18.125 9.16667C18.125 10.1083 17.45 11.15 16.5917 11.5333L10.9333 14.05C10.6333 14.175 10.3167 14.2417 10 14.2417Z" fill="#292D32"/>
<path d="M10 18.4083C9.68333 18.4083 9.36667 18.3417 9.06667 18.2083L3.40833 15.6917C2.475 15.275 1.875 14.35 1.875 13.325C1.875 12.9833 2.15833 12.7 2.5 12.7C2.84167 12.7 3.125 12.9917 3.125 13.3333C3.125 13.8583 3.43333 14.3417 3.91667 14.5583L9.575 17.075C9.84167 17.1917 10.15 17.1917 10.425 17.075L16.0833 14.5583C16.5667 14.3417 16.875 13.8667 16.875 13.3333C16.875 12.9917 17.1583 12.7083 17.5 12.7083C17.8417 12.7083 18.125 12.9917 18.125 13.3333C18.125 14.3583 17.525 15.2833 16.5917 15.7L10.9333 18.2167C10.6333 18.3417 10.3167 18.4083 10 18.4083Z" fill="#292D32"/>
</svg>
