<svg width="20" height="20" viewBox="0 0 20 20" fill="none" xmlns="http://www.w3.org/2000/svg">
<path fill-rule="evenodd" clip-rule="evenodd" d="M9.36583 0.833344C11.608 0.833344 13.4322 2.65751 13.4322 4.89968V5.75401C13.4322 6.13351 13.1242 6.44151 12.7447 6.44151C12.3652 6.44151 12.0572 6.13351 12.0572 5.75401V4.89968C12.0572 3.41468 10.8499 2.20834 9.36583 2.20834H4.89708C3.41483 2.20834 2.2085 3.41468 2.2085 4.89968V15.1013C2.2085 16.5853 3.41483 17.7917 4.89708 17.7917H9.37591C10.8536 17.7917 12.0572 16.589 12.0572 15.1113V14.2469C12.0572 13.8674 12.3652 13.5594 12.7447 13.5594C13.1242 13.5594 13.4322 13.8674 13.4322 14.2469V15.1113C13.4322 17.348 11.6117 19.1667 9.37591 19.1667H4.89708C2.65675 19.1667 0.833496 17.3434 0.833496 15.1013V4.89968C0.833496 2.65751 2.65675 0.833344 4.89708 0.833344H9.36583ZM16.7726 6.84118L19.4566 9.51326C19.4805 9.53702 19.502 9.56172 19.5216 9.58787L19.4566 9.51326C19.4891 9.54528 19.518 9.58027 19.543 9.61758C19.554 9.63449 19.5647 9.65197 19.5745 9.66993C19.5825 9.68397 19.5899 9.69862 19.5967 9.71352C19.6025 9.72668 19.6081 9.73985 19.6132 9.75322C19.6201 9.77064 19.6262 9.78855 19.6315 9.80669C19.6355 9.82099 19.6392 9.83525 19.6424 9.84968C19.6465 9.86719 19.6497 9.8848 19.6522 9.90255C19.6537 9.91409 19.6551 9.92619 19.6562 9.93837C19.6583 9.95928 19.6592 9.9796 19.6592 10L19.6545 10.0568L19.6526 10.0933C19.6524 10.0948 19.6522 10.0964 19.652 10.0979L19.6592 10C19.6592 10.0509 19.6535 10.1013 19.6426 10.1503C19.6392 10.1648 19.6355 10.179 19.6314 10.1931C19.6262 10.2115 19.6201 10.2294 19.6134 10.247C19.6081 10.2602 19.6025 10.2733 19.5966 10.2863C19.5899 10.3014 19.5825 10.316 19.5746 10.3304C19.5647 10.3481 19.554 10.3655 19.5427 10.3825C19.5362 10.3925 19.5292 10.4025 19.5218 10.4122C19.5 10.4409 19.4762 10.4679 19.4505 10.4929L16.7726 13.1598C16.6388 13.2936 16.4628 13.3605 16.2877 13.3605C16.1117 13.3605 15.9348 13.2936 15.8009 13.1579C15.5333 12.8884 15.5342 12.4539 15.8028 12.1863L17.306 10.6875H7.93381C7.55431 10.6875 7.24631 10.3795 7.24631 10C7.24631 9.62051 7.55431 9.31251 7.93381 9.31251H17.3078L15.8028 7.81468C15.5342 7.54701 15.5323 7.11251 15.8009 6.84301C16.0686 6.57351 16.5031 6.57351 16.7726 6.84118Z" fill="#EDEDED"/>
</svg>
