<svg width="20" height="20" viewBox="0 0 20 20" fill="none" xmlns="http://www.w3.org/2000/svg">
<path fill-rule="evenodd" clip-rule="evenodd" d="M11.6463 1.66699C11.6821 1.66699 11.7172 1.67001 11.7513 1.67579L11.8654 1.67649C12.0354 1.67649 12.1979 1.74566 12.3162 1.86816L16.5371 6.26566C16.6487 6.38149 16.7113 6.53733 16.7113 6.69816V14.3365C16.7262 16.4273 15.0979 18.1357 13.0037 18.2207L6.32122 18.2215H6.23039C4.18877 18.1754 2.55136 16.5242 2.50147 14.5025L2.50122 5.40899C2.54955 3.34149 4.25705 1.67649 6.30955 1.67649L11.5413 1.67579C11.5754 1.67001 11.6105 1.66699 11.6463 1.66699ZM11.0212 2.92616L6.31122 2.92649C4.93039 2.92649 3.78372 4.04483 3.75122 5.42399V14.3365C3.72039 15.764 4.84539 16.9398 6.25872 16.9715H12.9787C14.3696 16.914 15.4712 15.7582 15.4613 14.3415L15.4612 7.48616L13.7863 7.48699C12.2613 7.48283 11.0213 6.23949 11.0213 4.71616L11.0212 2.92616ZM11.4906 12.1737C11.8356 12.1737 12.1156 12.4537 12.1156 12.7987C12.1156 13.1437 11.8356 13.4237 11.4906 13.4237H6.99064C6.64564 13.4237 6.36564 13.1437 6.36564 12.7987C6.36564 12.4537 6.64564 12.1737 6.99064 12.1737H11.4906ZM9.78655 9.04708C10.1316 9.04708 10.4116 9.32708 10.4116 9.67208C10.4116 10.0171 10.1316 10.2971 9.78655 10.2971H6.98989C6.64489 10.2971 6.36489 10.0171 6.36489 9.67208C6.36489 9.32708 6.64489 9.04708 6.98989 9.04708H9.78655ZM12.2712 3.62699L12.2713 4.71616C12.2713 5.55283 12.9521 6.23449 13.788 6.23699L14.7762 6.23616L12.2712 3.62699Z" fill="#292D32"/>
</svg>
