<svg width="15" height="18" viewBox="0 0 15 18" fill="none" xmlns="http://www.w3.org/2000/svg">
<path fill-rule="evenodd" clip-rule="evenodd" d="M14.033 14.1609C14.033 16.9076 10.2663 17.2251 7.43384 17.2251L7.23114 17.2249C5.42651 17.2205 0.833008 17.1066 0.833008 14.1442C0.833008 11.4536 4.4483 11.094 7.25924 11.0805L7.63653 11.0803C9.44104 11.0846 14.033 11.1986 14.033 14.1609ZM7.43384 12.3301C3.88301 12.3301 2.08301 12.9401 2.08301 14.1442C2.08301 15.3592 3.88301 15.9751 7.43384 15.9751C10.9838 15.9751 12.783 15.3651 12.783 14.1609C12.783 12.9459 10.9838 12.3301 7.43384 12.3301ZM7.43384 0.666412C9.87384 0.666412 11.858 2.65141 11.858 5.09141C11.858 7.53141 9.87384 9.51558 7.43384 9.51558H7.40717C4.97217 9.50808 2.99967 7.52225 3.00798 5.08891C3.00798 2.65141 4.99301 0.666412 7.43384 0.666412ZM7.43384 1.85641C5.64967 1.85641 4.19799 3.30725 4.19799 5.09141C4.19217 6.86975 5.63301 8.31975 7.40967 8.32641L7.43384 8.92141V8.32641C9.21717 8.32641 10.668 6.87475 10.668 5.09141C10.668 3.30725 9.21717 1.85641 7.43384 1.85641Z" fill="#292D32"/>
</svg>
