<svg width="21" height="20" viewBox="0 0 21 20" fill="none" xmlns="http://www.w3.org/2000/svg">
<path d="M10.4749 18.9583C5.5416 18.9583 1.5166 14.9417 1.5166 10C1.5166 5.05834 5.5416 1.04167 10.4749 1.04167C15.4083 1.04167 19.4333 5.05834 19.4333 10C19.4333 14.9417 15.4166 18.9583 10.4749 18.9583ZM10.4749 2.29167C6.22494 2.29167 2.7666 5.75001 2.7666 10C2.7666 14.25 6.22494 17.7083 10.4749 17.7083C14.7249 17.7083 18.1833 14.25 18.1833 10C18.1833 5.75001 14.7249 2.29167 10.4749 2.29167Z" fill="#292D32"/>
<path d="M11.5584 14.15H9.44176C7.33343 14.15 6.3501 13.1667 6.3501 11.0583V8.94167C6.3501 6.83334 7.33343 5.85001 9.44176 5.85001H11.5584C13.6668 5.85001 14.6501 6.83334 14.6501 8.94167V11.0583C14.6501 13.1667 13.6668 14.15 11.5584 14.15ZM9.44176 7.10001C8.03343 7.10001 7.6001 7.53334 7.6001 8.94167V11.0583C7.6001 12.4667 8.03343 12.9 9.44176 12.9H11.5584C12.9668 12.9 13.4001 12.4667 13.4001 11.0583V8.94167C13.4001 7.53334 12.9668 7.10001 11.5584 7.10001H9.44176Z" fill="#292D32"/>
</svg>
